<svg width="169" height="56" viewBox="0 0 169 56" fill="none" xmlns="http://www.w3.org/2000/svg">
<g clip-path="url(#clip0_3_233)">
<g opacity="0.51">
<path fill-rule="evenodd" clip-rule="evenodd" d="M90.1112 24.8955L89.9883 25.0204V25.1448H90.1112H90.2345V25.0204L90.1112 24.8955Z" fill="#ADD47E"/>
<path fill-rule="evenodd" clip-rule="evenodd" d="M88.1409 23.2764V23.4008V23.5253V23.6501V23.7746V23.8991H88.0176V24.0235L87.7714 24.6466H87.6484V24.7711L87.7714 24.8955H88.1409L88.3872 24.6466L88.7567 24.1484L89.0033 24.0235V23.8991H88.7567H88.6334H88.5105V23.5253L88.3872 23.2764H88.1409Z" fill="#ADD47E"/>
<path fill-rule="evenodd" clip-rule="evenodd" d="M89.2487 24.5225L89.1254 24.6469H89.0025L88.7559 24.8958V25.1452V25.3941V25.5189L88.8792 25.2696L89.0025 25.1452V25.0207L89.1254 24.8958L89.3717 24.7714V24.6469V24.5225H89.2487Z" fill="#ADD47E"/>
<path fill-rule="evenodd" clip-rule="evenodd" d="M88.3873 25.1445L88.141 25.7672L87.8948 26.0165H87.7715L88.0177 26.141L88.2644 26.0165L88.3873 25.7672L88.5106 25.6428V25.1445H88.3873Z" fill="#ADD47E"/>
<path fill-rule="evenodd" clip-rule="evenodd" d="M88.6331 25.6436L88.5102 26.0173L88.2639 26.1418L88.1406 26.2663V26.64V26.7645L88.5102 26.2663L88.7564 25.8925V25.768L88.6331 25.6436Z" fill="#ADD47E"/>
<path fill-rule="evenodd" clip-rule="evenodd" d="M90.6041 25.1445L90.4807 25.269L90.3574 25.5183V25.6428H90.4807L90.727 25.3935V25.269V25.1445H90.6041Z" fill="#ADD47E"/>
<path fill-rule="evenodd" clip-rule="evenodd" d="M89.9887 25.2693L89.8654 25.3938L89.9887 25.6431V25.7676V25.892L90.1116 25.7676V25.3938V25.2693H89.9887Z" fill="#ADD47E"/>
</g>
<path d="M3.3705 13.7218H0V40.0362L12.3702 40.7585V37.3249L3.3705 37.777V13.7218Z" fill="#795B4E"/>
<path d="M23.0805 17.083H19.5996V39.5838H23.0805V17.083Z" fill="#795B4E"/>
<path d="M32.0957 17.0834L43.4302 16.3604V19.524H35.4873V27.2405H43.4302V29.9147H35.5763V39.5838H32.0957V17.0834Z" fill="#795B4E"/>
<path d="M50.748 17.0834L62.3499 16.3604V19.4327H54.229V27.2405H61.6365V29.5539H54.4069V37.6861H63.1542V40.7589L50.748 40.0359V17.0834Z" fill="#795B4E"/>
<path d="M72.4766 56C72.5216 55.9846 72.5333 55.9269 72.5352 55.8818C72.4999 55.8917 72.4157 55.9739 72.4766 56Z" fill="#98C04A"/>
<path d="M87.9768 41.3223C87.9526 40.8904 88.4178 40.2172 88.652 39.9825C88.6278 40.0888 88.4159 38.4091 88.3749 38.3171C88.1524 38.1017 88.73 37.9429 88.3214 37.8998C88.1622 37.8015 88.2742 37.3364 88.3081 37.2274C88.0572 36.7335 88.2957 36.4367 88.1997 36.24C88.092 36.1444 88.1384 35.1589 88.051 34.4592C87.6245 33.7678 87.6592 33.315 87.6779 32.8851C87.1999 32.1521 86.8748 30.3425 86.6567 30.2291C86.785 30.3255 85.1679 28.5791 84.7456 27.979C84.6255 27.6364 83.5016 27.0422 83.3779 27.0568C83.2444 27.0299 82.9221 26.3381 82.7679 26.2353C82.6914 26.0524 80.9221 24.7272 80.9541 24.6521C80.8596 24.5269 80.606 24.2997 80.6797 24.1239C79.9824 23.4549 78.9931 22.9211 78.5799 21.9851C78.5077 21.5011 77.7857 21.8607 78.0921 21.5928C78.3707 21.6189 77.7494 21.5268 77.6726 21.4395C77.9387 21.3798 78.1853 21.6019 78.4019 21.7018C78.3192 21.351 78.0761 21.0013 78.5284 20.7923C78.2575 20.573 78.238 20.0123 78.0031 20.1874C77.742 20.394 77.9961 20.2612 77.7483 20.1992C78.0546 20.0586 77.7502 20.0388 77.6218 19.8069C76.7918 19.4706 76.1436 18.7203 75.8123 17.7033C75.8443 18.3315 75.7803 17.844 75.7276 17.5409C75.6574 17.4761 75.367 17.292 75.577 17.384C75.7881 17.3821 75.3721 17.2489 75.3491 17.1296C75.2058 16.8277 75.3178 16.4587 75.6234 16.42C75.8033 16.382 75.5957 15.915 75.7943 15.8917C75.9973 15.7277 75.9984 15.6175 75.9102 15.414H75.911C75.8361 15.2516 76.8566 13.446 77.6562 12.6399C77.7896 12.5048 77.9446 12.3333 78.1077 12.1484C78.1994 12.1701 78.3383 12.2231 78.4327 12.0971C78.6509 12.071 78.6899 11.7256 78.4558 11.8347C78.3918 11.7501 78.5857 11.7707 78.6189 11.8284C78.7801 11.9619 78.7016 11.5336 78.6739 11.5309C78.7336 11.5625 78.7711 11.4712 78.7711 11.3795C79.4478 10.5854 80.1869 9.72519 80.7098 9.36801H80.7117C80.8276 9.39488 80.9221 9.385 80.9939 9.23012C80.9201 9.0381 81.6331 9.24197 81.5141 8.9326C81.5496 8.86148 81.557 8.78364 81.557 8.70462C82.3379 8.05269 83.2104 7.28301 83.5285 7.29012C83.5355 7.33358 83.5453 7.36756 83.548 7.42802C84.0323 7.22967 82.988 6.33 82.6906 6.72195C82.4432 6.82665 82.1724 6.75711 81.9792 6.8796C81.811 6.7986 81.8235 6.43786 81.5929 6.74526C81.3393 6.9843 81.381 6.4351 81.1992 6.36042C80.8241 6.56074 80.647 6.05105 80.3094 6.02853C79.9558 5.96373 80.5088 5.61919 80.1962 5.51923C79.8286 5.71837 79.4107 5.04154 79.1161 5.37422C78.8562 5.55202 79.0321 5.11108 79.0563 5.0127C78.9467 4.69621 79.0349 4.43228 78.9369 4.11737C78.7153 3.97237 78.391 3.83803 78.5861 3.46544C78.6973 3.18135 78.6325 2.70169 79.0376 3.05689C79.0938 2.78387 79.5718 2.23387 79.3974 2.15999C79.212 2.21688 79.1648 1.93714 78.9994 1.88499C78.8124 2.07622 78.7047 1.67479 78.4421 1.68309C78.0281 2.05805 77.5231 2.03395 77.2597 1.50924C76.526 1.27375 76.2474 2.11415 75.6933 1.32156C75.4154 1.06197 74.9034 1.33499 74.9674 0.768798C74.5998 0.499332 74.0492 -0.523218 73.8572 0.338916C73.5083 0.358672 73.1243 0.56334 72.7985 0.768008C72.5436 0.557018 72.6603 1.02839 72.4067 1.00073C72.5518 1.58945 72.1023 2.39903 71.5169 2.02328C71.2285 2.32514 70.3532 2.98538 70.3407 2.13865C69.9989 1.88538 69.4049 2.57762 69.4564 3.11418C69.4545 3.54881 69.1778 3.03832 69.0326 3.03319C67.5919 0.876664 68.1484 3.96012 67.38 2.59145C67.403 2.39389 67.243 2.19752 67.0424 2.20543C66.763 2.73369 66.42 3.08376 66.0969 3.43264C66.0621 3.86727 65.3855 3.28369 65.3827 2.99525C65.1209 2.7977 64.7361 2.69062 64.4754 2.4986C64.2065 2.73922 64.2651 2.18646 63.9455 2.29393C63.6633 2.63728 63.7184 3.01778 63.2661 3.34414C63.2083 3.90322 62.4325 3.38483 63.0292 4.18889C63.7336 4.94079 64.6268 5.43744 64.6623 6.55561C65.2223 6.98667 65.1603 5.43586 65.346 6.13916C65.2891 6.78201 65.883 5.82544 65.8428 6.87051C65.7698 6.98667 65.1455 7.69827 65.5935 7.3889C65.6797 7.39799 65.4428 7.76505 65.5025 7.89188C65.515 8.03056 65.1697 8.03333 65.254 8.16845C65.6415 8.09892 65.4463 8.45807 65.6699 8.58846C65.8186 8.92826 66.1589 9.2396 66.3474 9.64064C66.635 9.75048 67.1853 10.0923 67.4596 9.82437C67.6672 10.1436 68.0473 10.1164 68.2861 10.4238C68.4196 10.5328 68.5292 10.3704 68.4446 10.2542C68.4391 10.1361 68.6904 10.1938 68.6334 10.0595C68.5745 9.64578 69.1294 9.62207 69.4151 9.50946C70.2139 8.91087 70.7864 10.0251 71.4506 10.3696C72.3669 10.7797 70.4558 11.0378 70.9066 11.3606C71.2672 11.4147 71.611 11.3614 71.888 11.6249C72.0437 12.065 71.474 12.3416 72.434 12.1271C72.8106 12.3057 72.9007 12.6012 72.912 12.9367C72.823 13.0935 72.5994 13.0026 72.4917 13.2061C71.8533 13.4416 72.9327 13.7182 71.9778 13.9841C71.7366 14.4618 71.4131 14.689 70.9405 14.2548C70.6459 14.1825 70.2959 14.0671 69.9521 14.2113C69.8931 14.4231 69.659 14.2014 69.5442 14.1781C69.3421 14.4488 69.8986 14.6633 69.8291 14.9446C69.5247 15.4144 68.53 15.4504 69.4108 15.93C70.0957 15.8921 70.5035 16.5531 71.0482 16.8649C71.4221 16.8909 71.6902 17.4157 72.0457 17.5618C72.6314 17.7025 73.2328 17.7511 73.6621 18.1577C73.3495 18.7077 73.241 18.6535 73.6371 19.2893C73.6613 19.4596 73.9512 19.7014 74.1261 19.622C74.1545 19.8085 74.135 19.9539 74.3789 19.9906C74.7075 19.4856 74.8874 20.2719 75.1028 20.5469C75.2784 20.9203 75.3842 21.3952 75.6628 21.8109C76.3547 21.9938 76.8632 23.5664 77.5531 23.3147C77.6964 23.1065 77.7463 23.5841 77.7471 23.6833C78.0339 24.0259 78.1174 24.5842 78.5572 24.4498C78.6212 24.7509 78.3578 25.8608 78.8839 25.8734C78.9603 26.0662 79.061 26.7759 79.3479 26.4333C79.8989 25.685 79.552 26.6324 80.0308 26.8004C80.158 27.1338 80.7145 26.8814 80.7309 27.4341C80.997 27.5214 81.1547 27.7696 81.3923 27.8857C81.5195 27.9055 81.8446 27.6917 81.7673 27.9525C81.7591 28.8585 80.1904 28.2437 81.0622 29.3627C81.3131 29.5898 81.4922 30.0814 81.8243 29.9332C82.0237 30.1549 81.941 30.2765 82.2875 30.337C82.2341 30.5994 82.8627 30.9249 82.4975 31.062C82.3266 31.5535 82.3468 31.6365 81.8153 31.731C81.7396 32.0214 82.1591 32.0842 82.2091 32.2865C82.014 32.4406 81.9722 32.6136 82.0257 32.8068C82.2298 33.1127 81.9714 33.5983 81.8528 33.9301C81.6292 33.9645 81.511 34.0475 81.4743 34.3466C81.6027 34.7927 81.1012 35.5086 81.7627 35.5963C81.7174 36.2182 82.0522 36.7026 82.3566 37.259C82.6337 38.0488 81.5773 39.0461 81.9898 39.7565C82.3671 40.4064 82.3781 41.6479 81.6272 41.9869C81.0598 41.1401 80.4714 42.4729 79.9246 42.6704C79.5746 42.6479 79.2827 42.6353 79.1578 43.0236C78.9069 43.0434 78.5151 43.0497 78.263 43.0319C77.9024 42.8723 78.1916 43.269 78.2185 43.4168C78.0074 43.6432 78.1685 43.9379 78.1732 44.156C77.68 44.1525 77.109 43.6286 76.6228 43.8479C76.638 44.452 75.4072 44.0067 76.1475 44.6701C76.2349 45.1209 75.9766 45.533 76.3676 45.8384C76.6349 45.8771 76.8039 46.1747 76.9623 46.3766C77.0931 45.9771 77.495 46.7942 77.184 46.6875C76.9178 46.7847 77.3034 47.2178 77.2847 47.4366C77.079 47.2762 76.7172 47.3671 76.5588 47.0996C76.2107 46.9139 76.3184 47.6216 75.8919 46.7073C75.655 46.2241 74.9569 47.0427 74.5456 46.7179C74.2162 47.313 73.826 47.0589 73.3569 46.7776C72.6295 47.5105 74.1022 47.213 72.4316 48.349C71.8681 48.2138 71.2644 48.3581 71.1278 48.8512C71.2625 48.9242 71.387 48.5868 71.4022 48.7789C71.1653 49.1151 71.6968 49.2 71.6995 49.6272C71.6566 49.8038 71.867 49.658 71.922 49.5991C72.2513 48.9815 72.6069 50.0626 73.0919 49.901C73.3627 50.0938 73.5032 50.432 73.4845 50.7592C73.3955 50.11 72.9288 50.8232 72.6779 50.9954C72.5522 51.7853 71.9645 55.0734 72.7988 54.5747C72.7907 54.7316 72.8593 54.9055 72.5959 54.8561C72.4141 54.9544 72.7883 55.0074 72.864 54.9426C73.1099 54.9912 72.5382 54.992 72.4348 55.0046C72.6225 55.165 72.1749 55.3093 72.0804 55.2852C72.0894 55.423 72.345 55.3555 72.4188 55.4033C73.7339 55.6305 74.2728 54.3215 74.9167 53.4858C75.742 53.1504 76.3914 52.9295 76.809 52.698L76.8097 52.7007C76.8097 52.7007 78.4284 52.0255 78.5834 51.8315C78.5834 51.8315 79.3884 50.8315 79.4844 50.6722C79.5816 50.5134 79.8797 49.9472 80.1026 49.6742C80.3242 49.4 80.748 48.9898 80.9412 48.8338C81.0294 48.7626 81.1129 48.6868 81.1808 48.6228C81.2932 48.6354 81.3947 48.6346 81.4579 48.5931C81.9468 48.5762 82.1818 48.1577 82.6048 48.0333C82.8842 47.9151 83.148 47.6962 83.4337 47.6077C83.6885 47.605 83.8422 47.7603 83.9234 47.4149C83.9457 46.5793 84.8139 46.936 85.0461 46.7164C85.0504 46.4619 85.9882 45.8301 86.3597 45.9273C86.5529 45.5974 87.4851 44.5417 87.4469 44.3109C87.651 44.2449 88.0229 42.772 88.1193 42.5132C88.2734 42.3527 87.8094 41.2879 87.9761 41.3223M83.5265 7.28419C83.4875 7.23994 83.3939 7.21386 83.2666 7.20122C83.4028 7.07044 83.4902 7.08032 83.5265 7.28419ZM83.1917 7.19332C83.1722 7.19253 83.15 7.19253 83.1293 7.19134C83.1445 7.15539 83.1507 7.08506 83.1917 7.19332ZM83.0707 7.13129C83.0813 7.16092 83.0903 7.17988 83.0984 7.19174C83.0583 7.19095 83.02 7.18976 82.9775 7.18976C82.9447 7.14116 82.933 7.11034 83.0711 7.13129" fill="#98C04A"/>
<path d="M89.6309 17.083V19.8705H98.6903V39.5834H101.942L101.361 19.7524H110.653V17.083H89.6309Z" fill="#98C04A"/>
<path d="M111.231 17.0834V19.6358C111.231 19.6358 117.154 21.7267 119.129 27.9727C119.245 35.5118 119.129 39.5842 119.129 39.5842H122.845V27.9727C122.845 27.9727 128.653 19.7531 132.486 19.166L130.743 16.4611C130.743 16.4611 123.368 20.5769 121.335 26.9268C119.708 22.5758 115.063 17.0834 111.23 17.0834" fill="#98C04A"/>
<path d="M138.654 17.083V40.333L150.501 40.7585V37.7454H142.255V17.083H138.654Z" fill="#98C04A"/>
<path d="M156.533 17.0834V40.0979L168.999 40.7589V37.7458H159.785V29.8669H166.986V27.1619H159.902V18.5773H167.916V16.3604L156.533 17.0834Z" fill="#98C04A"/>
<path fill-rule="evenodd" clip-rule="evenodd" d="M92.9335 42.6205L92.7969 42.7588V43.035L92.9335 43.3116L93.207 43.4498L93.4802 43.5877V43.726L93.7534 43.8643L93.8903 43.726V43.3116H94.0269V43.1733V43.035V42.8971H93.8903H93.7534V42.7588L93.4802 42.6205H93.3436H93.0704L92.9335 42.4822V42.6205Z" fill="#ADD47E"/>
<path fill-rule="evenodd" clip-rule="evenodd" d="M93.7538 41.3076L93.6172 41.4455V41.5838H93.7538H93.8904V41.4455L93.7538 41.3076Z" fill="#ADD47E"/>
<path fill-rule="evenodd" clip-rule="evenodd" d="M96.4992 39.6513L96.1667 39.0314L96.1261 38.899L96.0859 38.7671L95.915 38.6758L95.7846 38.7165L95.6543 38.7576L95.6945 38.8895L95.7351 39.0219L95.9462 39.2451L95.8966 39.5506L96.0676 39.6414L96.1979 39.6007L96.4992 39.6513Z" fill="#ADD47E"/>
<path fill-rule="evenodd" clip-rule="evenodd" d="M95.1206 39.3047V39.4426V39.5809V39.7192V39.8574V39.9953H94.984V40.1336L94.7108 40.8247H94.5742V40.9626L94.7108 41.1009H95.1206L95.3941 40.8247L95.8039 40.2719L96.077 40.1336V39.9953H95.8039H95.6669H95.5303V39.5809L95.3941 39.3047H95.1206Z" fill="#ADD47E"/>
<path fill-rule="evenodd" clip-rule="evenodd" d="M96.076 40.7549L95.9394 40.8928H95.8029L95.5293 41.1694V41.4455V41.7221V41.8604L95.6659 41.5838L95.8029 41.4455V41.3076L95.9394 41.1694L96.2126 41.0311V40.8928V40.7549H96.076Z" fill="#ADD47E"/>
<path fill-rule="evenodd" clip-rule="evenodd" d="M94.9726 41.7031L94.8867 42.1875L94.6229 42.3776L94.5 42.5506L94.555 43.0181L94.5738 43.1737L94.9234 42.4993L95.1501 41.9979L95.1318 41.8418L94.9726 41.7031Z" fill="#ADD47E"/>
<path fill-rule="evenodd" clip-rule="evenodd" d="M94.3009 41.4463L94.1643 41.5846L94.0273 41.8612V41.9991H94.1643L94.4375 41.7229V41.5846V41.4463H94.3009Z" fill="#ADD47E"/>
<path fill-rule="evenodd" clip-rule="evenodd" d="M93.6172 41.7224L93.4806 41.8603L93.6172 42.1369V42.2752V42.4135L93.7537 42.2752V41.8603V41.7224H93.6172Z" fill="#ADD47E"/>
<path fill-rule="evenodd" clip-rule="evenodd" d="M95.0527 38.6133H94.9161L94.7792 38.7516L94.6426 38.8895L94.7792 39.0278L95.0527 38.8895V38.6133Z" fill="#ADD47E"/>
<path fill-rule="evenodd" clip-rule="evenodd" d="M94.2715 42.4111V42.4574V42.5036L94.4077 42.5502V42.5036L94.3623 42.4111H94.3169H94.2715Z" fill="#ADD47E"/>
<path fill-rule="evenodd" clip-rule="evenodd" d="M94.8208 42.1797L94.7754 42.2263V42.3188L94.8208 42.365H94.8662V42.3188V42.2263L94.8208 42.1797Z" fill="#ADD47E"/>
<path fill-rule="evenodd" clip-rule="evenodd" d="M94.6367 42.5498V42.596H94.6824V42.6423L94.7284 42.6885L94.8654 42.596V42.5498H94.8197H94.7284H94.6824H94.6367Z" fill="#ADD47E"/>
<path fill-rule="evenodd" clip-rule="evenodd" d="M93.5376 42.6885L93.4922 42.7347V42.8272L93.5376 42.8738H93.583V42.7809V42.7347L93.5376 42.6885Z" fill="#ADD47E"/>
<path fill-rule="evenodd" clip-rule="evenodd" d="M93.3557 43.0129V43.1053H93.4014V43.1515H93.447L93.5844 43.1053V43.0591H93.5387H93.447L93.4014 43.0129H93.3557Z" fill="#ADD47E"/>
<path fill-rule="evenodd" clip-rule="evenodd" d="M93.1728 43.5684L93.127 43.6146V43.707H93.1728V43.7537L93.2182 43.707V43.6608V43.6146L93.1728 43.5684Z" fill="#ADD47E"/>
<path fill-rule="evenodd" clip-rule="evenodd" d="M92.9902 43.8926V43.985H93.0359V44.0313H93.0815L93.2189 43.985V43.9388H93.1733H93.0815L93.0359 43.8926H92.9902Z" fill="#ADD47E"/>
<path fill-rule="evenodd" clip-rule="evenodd" d="M93.5391 43.7539V43.7997V43.8464H93.6303H93.6757V43.7997L93.6303 43.7539H93.5845H93.5391Z" fill="#ADD47E"/>
<path fill-rule="evenodd" clip-rule="evenodd" d="M94.9576 41.1614L94.912 41.2076L94.9576 41.2542L95.0489 41.3004H95.095V41.2076L95.0489 41.1614H94.9576Z" fill="#ADD47E"/>
<path fill-rule="evenodd" clip-rule="evenodd" d="M95.4609 40.9307V40.9769V41.0693V41.1156H95.5064V41.0693V40.9769L95.4609 40.9307Z" fill="#ADD47E"/>
<path fill-rule="evenodd" clip-rule="evenodd" d="M95.3242 41.3008V41.347V41.3932H95.3703L95.5072 41.347V41.3008H95.4616H95.4159H95.3703H95.3242Z" fill="#ADD47E"/>
<path fill-rule="evenodd" clip-rule="evenodd" d="M94.8657 41.3467L94.8203 41.3929V41.4853L94.8657 41.5316H94.9115V41.4391V41.3929L94.8657 41.3467Z" fill="#ADD47E"/>
<path fill-rule="evenodd" clip-rule="evenodd" d="M93.9512 42.1797V42.2263V42.2725L94.0425 42.3188L94.1342 42.2263V42.1797H94.0881H94.0425H93.9968H93.9512Z" fill="#ADD47E"/>
<path fill-rule="evenodd" clip-rule="evenodd" d="M93.584 42.8271V42.92H93.63L93.6757 42.9662L93.8131 42.92V42.8738V42.8271H93.7674H93.6757H93.63H93.584Z" fill="#ADD47E"/>
<path fill-rule="evenodd" clip-rule="evenodd" d="M93.6758 43.8457V43.8919V43.9382L93.7214 43.9844L93.8588 43.8919V43.8457H93.8131H93.7675H93.7214H93.6758Z" fill="#ADD47E"/>
<path fill-rule="evenodd" clip-rule="evenodd" d="M94.5 42.457V42.5499V42.5961H94.6366V42.5499L94.5912 42.5033L94.5454 42.457H94.5Z" fill="#ADD47E"/>
<path d="M75.5716 6.64551L75.9162 7.71942H77.0319L76.1293 8.38361L76.4742 9.45791L75.5716 8.79373L74.669 9.45791L75.0136 8.38361L74.1113 7.71942H75.2266L75.5716 6.64551Z" fill="#FFF200"/>
</g>
<defs>
<clipPath id="clip0_3_233">
<rect width="169" height="56" fill="white"/>
</clipPath>
</defs>
</svg>
