<svg xmlns="http://www.w3.org/2000/svg" width="169" height="56" fill="none"><g clip-path="url(#a)"><path fill="#add47e" fill-rule="evenodd" d="m90.111 24.896-.123.124v.125h.246v-.125zm-1.971-1.62v.623h-.122v.124l-.247.624h-.123v.124l.123.124h.37l.246-.248.37-.499.246-.125V23.9h-.493v-.374l-.123-.249zm1.109 1.247-.124.124h-.123l-.246.249v.623l.123-.25.123-.124v-.124l.123-.125.247-.125v-.248zm-.862.622-.246.622-.246.25h-.123l.246.124.246-.124.123-.25.124-.124v-.498zm.246.499-.123.373-.246.125-.123.124v.499l.37-.499.245-.373v-.125zm1.971-.499-.123.124-.124.25v.124h.124l.246-.25v-.248zm-.615.125-.124.124.124.25v.248l.123-.124v-.499z" clip-rule="evenodd" opacity=".51"/><path fill="#795b4e" d="M3.37 13.722H0v26.314l12.37.722v-3.433l-9 .452zm19.71 3.361H19.6v22.5h3.48zm9.016 0 11.334-.723v3.164h-7.943v7.717h7.943v2.674h-7.854v9.669h-3.48zm18.652 0 11.602-.723v3.073h-8.121v7.808h7.407v2.313h-7.23v8.132h8.748v3.073l-12.406-.723z"/><path fill="#98c04a" d="M72.477 56c.045-.015.056-.073.058-.118-.035.01-.12.092-.058.118m15.5-14.678c-.024-.432.44-1.105.675-1.34-.024.107-.236-1.573-.277-1.665-.223-.215.355-.374-.054-.417-.159-.099-.047-.564-.013-.673-.25-.493-.012-.79-.108-.987-.108-.096-.062-1.081-.149-1.78-.427-.692-.392-1.145-.373-1.575-.478-.733-.803-2.542-1.021-2.656.128.097-1.49-1.65-1.911-2.25-.12-.343-1.244-.937-1.368-.922-.134-.027-.456-.719-.61-.822-.077-.183-1.846-1.508-1.814-1.583-.094-.125-.348-.352-.274-.528-.698-.67-1.687-1.203-2.1-2.139-.072-.484-.794-.124-.488-.392.279.026-.343-.066-.42-.154.267-.06.513.163.73.263-.083-.351-.326-.7.126-.91-.27-.219-.29-.78-.525-.605-.261.207-.007.074-.255.012.307-.14.002-.16-.126-.392-.83-.336-1.478-1.087-1.81-2.104.032.628-.032.141-.084-.162-.07-.065-.361-.249-.151-.157.211-.002-.205-.135-.228-.254-.143-.302-.031-.671.274-.71.18-.038-.027-.505.171-.528.203-.164.204-.274.116-.478h.001c-.075-.162.946-1.968 1.745-2.774.134-.135.289-.307.452-.492.091.022.23.075.325-.05.218-.027.257-.372.023-.263-.064-.085.13-.064.163-.007.161.134.083-.294.055-.297.06.031.097-.06.097-.152.677-.794 1.416-1.654 1.939-2.011h.002c.116.027.21.017.282-.138-.074-.192.64.012.52-.297a.5.5 0 0 0 .043-.228c.78-.652 1.653-1.422 1.971-1.415.007.044.017.078.02.138.484-.198-.56-1.098-.857-.706-.248.105-.519.035-.712.158-.168-.081-.156-.442-.386-.135-.254.24-.212-.31-.394-.385-.375.2-.552-.309-.89-.331-.353-.065.2-.41-.113-.51-.367.2-.785-.477-1.08-.145-.26.178-.084-.263-.06-.361-.11-.317-.021-.58-.12-.896-.22-.145-.545-.279-.35-.652.111-.284.046-.763.452-.408.056-.273.534-.823.36-.897-.186.057-.233-.223-.399-.275-.187.191-.294-.21-.557-.202-.414.375-.919.35-1.182-.174-.734-.235-1.013.605-1.567-.187-.278-.26-.79.013-.726-.553-.367-.27-.918-1.292-1.11-.43-.349.02-.733.224-1.058.429-.255-.211-.139.26-.392.233.145.588-.305 1.398-.89 1.022-.288.302-1.164.962-1.176.116-.342-.254-.936.439-.885.975-.002.435-.278-.076-.423-.08-1.441-2.157-.885.926-1.653-.443.023-.197-.137-.393-.338-.386-.279.529-.622.879-.945 1.228-.035.434-.712-.15-.714-.438-.262-.197-.647-.304-.908-.496-.268.24-.21-.313-.53-.205-.282.343-.227.724-.679 1.05-.058.56-.834.04-.237.845.705.752 1.598 1.248 1.633 2.367.56.43.498-1.12.684-.417-.057.643.537-.314.497.732-.073.116-.698.827-.25.518.087.009-.15.376-.09.503.012.139-.333.141-.249.276.387-.07.192.29.416.42.149.34.489.652.677 1.053.288.11.838.451 1.113.183.207.32.587.292.826.6.134.109.243-.054.159-.17-.006-.118.245-.06.188-.194-.058-.414.496-.438.782-.55.799-.6 1.371.515 2.036.86.916.41-.995.668-.544.99.36.055.704.001.981.265.156.44-.414.717.546.502.377.179.467.474.478.81-.089.157-.313.066-.42.27-.639.235.44.511-.514.777-.241.478-.565.705-1.037.27-.295-.072-.645-.187-.989-.043-.059.212-.293-.01-.408-.033-.202.27.355.485.285.767-.304.47-1.299.505-.418.985.685-.038 1.093.623 1.637.935.374.026.642.55.998.697.585.14 1.187.19 1.616.596-.312.55-.421.495-.025 1.131.024.17.314.412.49.333.028.186.008.332.252.369.328-.505.508.28.724.556.175.373.281.848.56 1.264.692.183 1.2 1.755 1.89 1.504.143-.209.193.27.194.368.287.343.37.901.81.767.064.3-.2 1.41.327 1.423.076.193.177.903.464.56.55-.748.204.2.683.367.127.334.683.081.7.634.266.087.424.336.661.452.127.02.453-.194.375.067-.008.906-1.577.29-.705 1.41.251.227.43.718.762.57.2.222.117.343.463.404-.053.262.576.588.21.725-.17.491-.15.575-.682.669-.075.29.344.353.394.555-.195.155-.237.328-.183.52.204.307-.055.792-.173 1.124-.224.035-.342.117-.379.417.129.446-.373 1.162.289 1.25-.046.621.29 1.106.594 1.662.277.79-.78 1.787-.367 2.498.377.65.388 1.89-.363 2.23-.567-.847-1.156.486-1.702.683-.35-.022-.642-.035-.767.354-.251.02-.643.026-.895.008-.36-.16-.071.237-.044.385-.212.226-.05.52-.046.739-.493-.003-1.064-.527-1.55-.308.015.604-1.216.159-.476.822.088.45-.17.863.22 1.168.268.04.437.337.595.539.131-.4.533.417.222.31-.266.098.12.53.1.75-.205-.16-.567-.07-.725-.337-.348-.186-.24.522-.667-.393-.237-.483-.935.336-1.346.01-.33.596-.72.342-1.19.06-.727.733.746.436-.924 1.572-.564-.135-1.168.01-1.304.502.135.073.259-.264.274-.072-.237.336.295.421.297.848-.042.177.168.031.223-.028.33-.617.685.464 1.17.302a.99.99 0 0 1 .392.858c-.088-.649-.555.064-.806.236-.126.79-.713 4.078.12 3.58-.007.157.061.33-.202.281-.182.098.192.151.268.087.246.048-.326.049-.43.062.189.16-.26.304-.354.28.01.138.265.07.339.118 1.315.227 1.854-1.081 2.498-1.917.825-.336 1.474-.556 1.892-.788v.003s1.62-.675 1.774-.87c0 0 .805-1 .901-1.159.098-.159.396-.725.619-.998.221-.274.645-.684.838-.84.088-.071.172-.147.24-.211.112.012.214.012.277-.03.489-.017.724-.435 1.147-.56.28-.118.543-.337.829-.425.255-.003.408.152.49-.193.022-.836.89-.479 1.122-.699.004-.254.942-.886 1.314-.789.193-.33 1.125-1.385 1.087-1.616.204-.066.576-1.539.672-1.798.154-.16-.31-1.225-.143-1.19m-4.45-34.039c-.038-.044-.132-.07-.26-.083.137-.13.224-.12.26.083m-.334-.09-.063-.003c.015-.036.022-.106.063.002m-.121-.063q.016.044.027.06l-.12-.001c-.033-.049-.045-.08.093-.059m6.559 9.953v2.788h9.06v19.712h3.252l-.581-19.83h9.292v-2.67zm21.601 0v2.553s5.923 2.09 7.898 8.337c.116 7.539 0 11.611 0 11.611h3.716V27.973s5.808-8.22 9.641-8.807l-1.743-2.705s-7.375 4.116-9.408 10.466c-1.627-4.351-6.272-9.844-10.105-9.844m27.424 0v23.25l11.847.425v-3.013h-8.246V17.083zm17.879 0v23.015l12.466.66v-3.012h-9.214v-7.88h7.201v-2.704h-7.084v-8.585h8.014V16.36z"/><path fill="#add47e" fill-rule="evenodd" d="m92.934 42.62-.137.139v.276l.136.277.274.138.273.138v.138l.273.138.137-.138v-.414h.137v-.415h-.274v-.138l-.273-.139h-.41l-.136-.138zm.82-1.312-.137.138v.138h.273v-.139zm2.746-1.657-.333-.62-.04-.132-.041-.132-.171-.091-.13.04-.13.042.04.131.04.133.211.223-.05.306.172.09.13-.04zm-1.38-.346v.69h-.136v.139l-.273.69h-.137v.139l.137.138h.41l.273-.276.41-.553.273-.138v-.139h-.547v-.414l-.136-.276zm.956 1.45-.137.138h-.136l-.274.276v.691l.137-.276.137-.139v-.137l.136-.139.274-.138v-.276zm-1.103.948-.086.484-.264.19-.123.174.055.467.019.156.35-.675.226-.501-.018-.156zm-.673-.257-.136.139-.137.276V42h.137l.273-.276v-.277zm-.683.276-.136.138.136.277v.277l.137-.139v-.553zm1.436-3.109h-.137l-.137.139-.136.137.136.139.274-.139zm-.781 3.798v.093l.136.046v-.046l-.046-.093z" clip-rule="evenodd"/><path fill="#add47e" fill-rule="evenodd" d="m94.82 42.18-.045.046v.093l.046.046h.045v-.139zm-.183.37v.046h.045v.046l.046.046.137-.092v-.046zm-1.099.139-.046.046v.092l.046.047h.045v-.139zm-.182.324v.092h.045v.047h.046l.137-.047v-.046h-.137l-.046-.046zm-.183.555-.046.047v.092h.046v.047l.045-.047v-.092zm-.183.325v.092h.046v.046h.046l.137-.046v-.046h-.137l-.046-.046zm.55-.139v.092h.136V43.8l-.046-.046h-.091m1.419-2.593-.046.047.046.046.09.046h.047v-.092l-.046-.047zm.502-.231v.186h.046v-.139zm-.136.37v.093h.046l.137-.046v-.046h-.183m-.458.046-.046.046v.092l.046.047h.046v-.139zm-.915.833v.093l.092.046.091-.093v-.046zm-.367.647v.093h.046l.046.046.137-.046v-.093zm.092 1.019v.092l.045.046.138-.092v-.046zm.824-1.389v.139h.137v-.046l-.046-.047-.046-.046z" clip-rule="evenodd"/><path fill="#fff200" d="m75.572 6.646.344 1.073h1.116l-.903.665.345 1.074-.902-.664-.903.664.345-1.074-.903-.665h1.116z"/></g><defs><clipPath id="a"><path fill="#fff" d="M0 0h169v56H0z"/></clipPath></defs></svg>