<svg xmlns="http://www.w3.org/2000/svg" width="746" height="352" fill="none"><path fill="#0850a4" d="M723.15 198.151c-3.746 14.485-10.565 29.054-20.945 42.727-10.196 13.758-23.894 26.534-39.864 38.07-32.125 23.03-73.893 40.633-119.592 51.913-45.761 11.408-92.75 16.707-137.958 19.484-45.269 2.692-89.556 2.222-130.955-2.307-41.461-4.359-79.912-12.904-113.204-24.568-33.353-11.622-61.608-26.32-83.475-42.258-21.99-15.937-37.284-33.113-47.726-48.965-3.87-6.067-7.125-11.921-9.705-17.561a72 72 0 0 1-2.948-4.272c-2.949-3.974-4.791-8.247-7.126-12.434l-2.702-6.452a37.5 37.5 0 0 1-2.334-6.58C1.544 176.147.5 166.96.009 157.774c-.123-9.229 1.044-18.501 3.378-27.73 2.703-9.186 6.204-18.373 11.548-27.174C25.254 85.266 41.593 68.816 62.6 55.827c20.822-13.16 45.146-22.944 70.084-30.25 25-7.35 50.797-12.22 76.288-15.852C260.077 2.76 310.076-.316 357.925.025c42.014.342 82.246 3.803 119.1 10.255h.123c9.214-.214 23.034.684 39.987 3.931 8.538 1.58 17.813 3.675 27.948 6.067s21.13 4.957 32.8 8.076c23.28 6.067 49.815 14.698 73.832 29.31 24.016 14.4 46.067 34.054 60.011 58.408 4.606 8.033 8.169 16.578 10.749 25.423a647 647 0 0 1 15.786 19.099c5.098 6.452 7.739 9.827 7.739 9.827s-2.825-3.333-8.169-9.656c-3.624-4.23-8.477-9.87-14.619-16.621 4.484 17.176 4.791 35.549 0 54.007zM357.679 6.477c-46.989 0-96.619 3.376-146.741 10.426-25 3.632-50.06 8.503-74.2 15.638-24.078 7.05-47.235 16.45-66.952 28.926C29.8 86.077 9.714 122.823 10.39 157.646c.369 8.716 1.29 17.39 4.116 25.721.553 2.094 1.228 4.188 2.15 6.239l2.518 6.152c2.211 3.931 3.87 8.033 6.634 11.75 9.705 15.382 24.14 28.841 40.417 40.335 32.923 23.029 72.848 38.283 111.484 49.136 38.819 10.852 77.086 17.176 112.344 20.466 70.944 6.281 129.297.555 168.055-5.854 4.852-.811 9.459-1.623 13.759-2.35 4.3-.769 8.231-1.666 11.916-2.435 7.371-1.495 13.636-2.82 18.611-4.145 9.951-2.478 15.172-3.76 15.172-3.76s-5.159 1.41-14.987 4.06c-4.853 1.41-11.118 2.82-18.427 4.486-3.686.812-7.617 1.794-11.855 2.649-4.3.812-8.845 1.666-13.698 2.606-38.635 7.136-97.233 13.929-169.161 8.503-35.81-2.905-74.752-8.802-114.493-19.398C135.448 291.168 94.233 276 59.651 252.372c-10.933-7.563-21.13-16.023-29.79-25.38.86 1.367 1.781 2.734 2.702 4.144 10.872 15.425 26.474 32.046 48.525 47.299 21.928 15.296 49.938 29.268 82.861 40.249 32.861 11.024 70.637 18.928 111.238 22.859 40.663 4.059 84.089 4.273 128.683 1.367s90.661-8.289 135.132-19.355c44.471-10.938 84.703-27.858 115.784-49.82 15.417-11.023 28.623-23.158 38.574-36.19 10.073-12.946 16.769-26.832 20.638-40.676 6.388-23.03 4.484-45.974-3.685-66.569-10.565-10.98-23.771-23.799-40.97-37.3-18.734-14.784-42.874-29.952-73.094-43.07-30.098-13.16-66.031-24.354-106.447-31.916-40.356-7.648-85.072-11.58-132.123-11.622zm290.289 54.05c-22.911-14.613-48.525-23.457-71.436-29.952-11.486-3.29-22.358-6.067-32.37-8.63-10.012-2.607-19.165-4.871-27.518-6.58-15.725-3.333-28.624-4.572-37.776-4.743 4.361.769 8.722 1.58 13.022 2.435 40.908 8.118 77.148 19.954 107.369 33.755 30.343 13.715 54.36 29.524 72.725 44.735 15.172 12.434 27.027 24.269 36.67 34.652a108 108 0 0 0-4.054-8.204c-12.837-23.628-33.66-43.026-56.632-57.425z"/></svg>