<svg width="1024" height="1024" viewBox="0 0 1024 1024" fill="none" xmlns="http://www.w3.org/2000/svg">
<rect x="397.5" y="562" width="225.523" height="115" rx="57.5" transform="rotate(30 397.5 562)" fill="#FDFDFD"/>
<path d="M508.341 190.208C517.866 189.753 527.406 189.852 536.916 190.505C586.896 194.101 633.411 217.367 666.266 255.205C720.946 247.176 782.081 287.578 795.791 340.883C799.171 354.035 800.541 373.574 784.831 379.433C775.316 382.982 763.471 376.971 753.746 376.754C744.456 376.437 735.856 377.515 726.796 379.896C740.501 453.75 727.591 530.07 690.371 595.31C687.721 599.905 684.941 604.315 682.101 608.79C672.661 623.645 660.741 636.475 653.726 652.75C676.521 634.955 705.371 630.205 730.486 647.375C749.761 660.555 760.186 687.475 746.066 708.345C737.411 721.14 725.476 719.005 712.861 723.91C710.651 724.77 706.816 729.07 704.571 730.35C693.886 738.945 685.756 741.555 672.501 743.615C682.946 759.845 689.336 772.205 688.796 792.255C688.226 813.55 675.226 830.365 652.586 828.64C633.316 827.17 619.181 817.16 606.511 803.18C594.006 787.995 587.291 771.165 586.046 751.575C492.463 771.665 377.299 724.96 343.428 631.115C341.387 625.46 339.054 619.005 337.792 613.15C331.443 612.465 325.169 611.205 319.05 609.375C291.058 600.945 267.607 581.66 253.931 555.82C244.512 538.145 230.991 493.755 255.876 480.647C276.222 469.93 295.753 494.244 310.777 504.455C319.498 510.38 324.101 512.915 334.575 516.245C329.112 510.71 323.686 505.095 318.496 499.302C281.24 457.702 268.009 392.127 314.762 351.701C320.716 321.948 337.866 288.64 357.5 265.542C396.942 219.139 448.537 195.506 508.341 190.208ZM353.527 617.705L354.5 620.475C355.008 621.92 355.468 623.33 356.074 624.74C356.746 626.555 357.928 630.095 358.809 631.64C374.292 675.175 419.487 711.83 462.038 727.17C463.659 727.75 466.744 728.29 467.886 728.8C505.016 732.505 533.351 734.71 568.231 715.635C564.561 712.975 561.131 710 557.976 706.75C542.681 690.805 538.471 672.37 538.986 651C536.746 650.855 533.711 651.165 531.366 651.295C503.956 652.785 465.503 639.665 462.444 607.595C462.416 605.305 462.545 603.1 462.652 600.82L463.43 598.23L463.942 596.54C469.946 581.04 480.435 578.69 493.743 571.21C498.355 568.62 503.666 563.32 508.246 560.17C524.366 549.085 541.906 542.585 561.176 539.595C559.901 516.6 551.401 500.705 534.861 485.28C515.731 525.98 467.511 535.575 427.724 522.415C397.195 512.32 376.908 493.495 362.696 465.139C357.266 477.623 350.183 497.732 348.816 511.345C342.631 548.22 341.793 581.56 353.527 617.705Z" fill="#022DA5"/>
<path d="M376.1 266.24C412.61 227.87 462.865 205.572 515.816 204.249C605.016 202.112 671.626 259.71 700.786 341.168C706.991 354.031 712.061 379.322 714.231 393.59C712.576 396.897 712.006 418.666 711.586 423.732C710.941 431.672 710.031 439.587 708.851 447.465C699.586 507.63 674.546 564.655 626.751 603.87C616.291 612.45 603.366 621.71 590.936 627.085C590.826 629.36 590.716 631.83 588.686 633.235C575.321 642.5 554.386 648.92 538.986 651C536.746 650.855 533.711 651.165 531.366 651.295C503.956 652.785 465.503 639.665 462.444 607.595C462.416 605.305 462.545 603.1 462.652 600.82L463.43 598.23L463.942 596.54C469.946 581.04 480.435 578.69 493.743 571.21C498.355 568.62 503.666 563.32 508.246 560.17C524.366 549.085 541.906 542.585 561.176 539.595C559.901 516.6 551.401 500.705 534.861 485.28C515.731 525.98 467.511 535.575 427.725 522.415C397.196 512.32 376.908 493.495 362.696 465.139C357.266 477.623 350.183 497.731 348.816 511.345C348.344 508.15 335.056 497.096 331.606 493.405C301.462 461.164 283.98 407.282 315.807 370.164C318.874 366.587 323.326 363.76 326.856 360.513L327.225 360.17C327.665 355.097 329.789 347.381 331.357 342.336C339.959 314.666 355.862 286.995 376.1 266.24Z" fill="#1CD4FD"/>
<path d="M355.729 414.38L356.636 414.099C354.852 409.611 360.498 398.253 363.139 394.28C369.62 384.676 379.7 378.092 391.098 376.016C411.871 372.077 433.974 382.055 454.101 385.411C476.109 389.081 495.661 389.975 514.995 403.334C528.565 412.514 537.765 426.874 540.43 443.042C542.99 457.913 540.5 471.507 534.86 485.28C515.73 525.98 467.51 535.575 427.723 522.415C397.194 512.32 376.907 493.495 362.695 465.139C355.573 447.018 352.326 434.236 355.235 414.697L355.729 414.38Z" fill="#0153C1"/>
<path d="M409.259 499.41C403.165 495.352 397.878 491.692 392.293 486.169C371.071 465.183 354.715 421.588 378.029 396.466C384.201 389.815 394.705 387.377 403.716 387.589C421.719 389.155 429.801 393.323 446.501 396.931C467.391 401.445 495.46 400.617 512.324 417.598C515.689 419.064 519.704 424.665 521.549 427.781C530.349 442.659 530.709 461.518 524.354 477.354C523.859 478.581 522.929 480.642 521.934 481.49C520.209 487.203 514.294 494.232 509.974 498.225C484.333 519.41 448.684 519.02 419.708 505.105C416.1 503.375 412.739 501.12 409.259 499.41Z" fill="#022DA5"/>
<path d="M434.529 477.037C438.063 479.188 440.822 477.771 444.81 477.206C468.954 473.79 498.793 471.86 509.975 498.225C484.334 519.41 448.684 519.02 419.709 505.105C416.1 503.375 412.74 501.12 409.26 499.41C412.625 494.52 415.325 491.151 419.27 486.736C420.813 490.322 420.977 492.725 421.405 496.517C423.3 486.637 424.926 481.613 434.529 477.037Z" fill="#1CD4FD"/>
<path d="M460.761 482.392C461.203 482.97 460.996 482.622 461.275 483.324C463.54 489.019 464.025 489.548 468.771 492.394C463.029 493.949 462.377 496.385 460.619 501.655C458.668 494.642 458.032 494.704 451.541 491.728C457.135 490.585 458.849 488.547 460.545 483.103L460.761 482.392Z" fill="#FEFEFE"/>
<path d="M403.717 387.589C421.721 389.155 429.802 393.322 446.503 396.931C467.393 401.444 495.461 400.617 512.326 417.597C509.991 418.746 506.966 420.347 504.601 421.261C500.136 423.119 495.486 424.493 490.729 425.362C467.441 429.698 436.224 425.307 416.307 411.752C409.82 407.337 405.114 401.804 403.675 393.91C403.395 392.398 403.644 389.253 403.717 387.589Z" fill="#FEFEFE"/>
<path d="M403.717 387.589C421.721 389.155 429.802 393.322 446.503 396.931C467.393 401.444 495.461 400.617 512.326 417.597C509.991 418.746 506.966 420.347 504.601 421.261C503.741 419.566 500.691 418 498.95 417.134C480.502 407.955 459.346 409.729 439.77 404.563C431.141 402.286 422.748 399.917 414.345 396.906C411.275 395.805 406.778 394.096 403.675 393.91C403.395 392.398 403.644 389.253 403.717 387.589Z" fill="#D6E8F3"/>
<path d="M434.976 474.887C445.839 466.258 470.022 464.852 483.285 466.401C495.784 467.86 512.185 473.34 521.935 481.489C520.21 487.203 514.295 494.232 509.975 498.225C498.793 471.859 468.954 473.79 444.81 477.206C440.822 477.77 438.063 479.187 434.529 477.036C436.213 476.547 436.628 476.522 438.048 475.423C437.051 474.602 436.638 474.914 434.976 474.887Z" fill="#06B3FE"/>
<path d="M421.572 457.565C423.463 466.081 425.147 473.106 434.976 474.887C436.638 474.914 437.051 474.602 438.048 475.423C436.627 476.522 436.213 476.547 434.529 477.036C424.926 481.612 423.3 486.637 421.404 496.517C420.977 492.725 420.812 490.322 419.27 486.735C415.882 479.312 412.191 477.955 404.775 475.809C416.371 473.039 419.534 469.429 421.572 457.565Z" fill="#FEFEFE"/>
<path d="M394.19 417.903C395.103 426.225 399.262 430.047 407.304 430.827C398.868 433.291 396.458 435.404 394.23 443.917L393.905 443.793C392.532 435.692 389.63 433.104 381.996 431.3C390.401 429.076 392.436 426.043 394.19 417.903Z" fill="#FEFEFE"/>
<path d="M444.854 437.949C445.065 438.193 446.728 442.245 447.188 443.058C449.202 446.622 451.418 446.936 455.111 447.852C448.799 450.413 447.361 451.705 445.022 457.999C444.877 457.824 443.786 455.542 443.671 455.305C441.206 450.199 440.182 450.316 435.145 448.321L435.049 447.901C441.063 446.348 442.739 444.415 444.63 438.647L444.854 437.949Z" fill="#FEFEFE"/>
<path d="M376.098 266.24C412.608 227.87 462.864 205.572 515.814 204.249C605.014 202.112 671.624 259.71 700.784 341.168C699.019 340.012 690.269 326.967 688.539 324.566C661.659 287.311 626.264 253.303 583.194 235.675C529.289 213.82 468.59 216.215 416.576 242.248C407.91 246.566 399.461 251.307 391.261 256.454C387.331 258.949 379.927 264.826 376.098 266.24Z" fill="#77EAFC"/>
<path d="M561.175 539.595C568.74 538.62 598.535 532.09 587.725 549.09C586.72 550.67 577.615 551.28 575.605 551.44C553.195 553.23 531.65 559.925 513.35 573.285C511.085 574.94 504.095 581.245 502.505 581.955C489.225 587.9 465.97 598.405 479.708 617.605C503.395 623.08 518.47 626.875 543.495 627.1C548.65 627.17 553.805 627.02 558.945 626.65C562.545 626.38 570.995 625.335 574.07 625.845C580.68 622.51 587.045 617.41 590.935 627.085C590.825 629.36 590.715 631.83 588.685 633.235C575.32 642.5 554.385 648.92 538.985 651C536.745 650.855 533.71 651.165 531.365 651.295C503.955 652.785 465.503 639.665 462.443 607.595C462.416 605.305 462.544 603.1 462.651 600.82L463.43 598.23L463.942 596.54C469.945 581.04 480.435 578.69 493.743 571.21C498.355 568.62 503.665 563.32 508.245 560.17C524.365 549.085 541.905 542.585 561.175 539.595Z" fill="#022DA5"/>
<path d="M479.707 617.605C503.395 623.08 518.47 626.875 543.495 627.1C548.65 627.17 553.805 627.02 558.945 626.65C562.545 626.38 570.995 625.335 574.07 625.845C548.695 640.885 498.375 645.655 479.707 617.605Z" fill="#06B3FE"/>
<path d="M342.489 396.011C343.32 402.906 344.993 411.223 353.106 413.298C354.416 413.633 354.574 413.527 355.728 414.38L355.235 414.698C347.039 415.596 343.733 423.487 342.435 430.555C340.515 420.486 338.53 416.984 328.723 414.186C339.846 411.272 340.912 406.382 342.489 396.011Z" fill="#FEFEFE"/>
<path d="M585.55 414.607C596.345 413.408 605.135 414.922 614.77 420.344C623.975 425.526 631.995 436.738 625.495 447.229C621.635 453.452 614.33 455.931 607.455 457.402C569.645 460.881 546.635 423.123 585.55 414.607Z" fill="#FE7FA3"/>
<path d="M540.114 347.598C562.109 345.449 583.024 359.075 580.729 383.382C579.824 392.984 570.774 398.294 566.504 387.355C565.529 384.856 564.214 382.445 562.764 380.158C555.639 370.704 546.039 366.297 534.609 371.933C530.764 373.83 522.869 380.693 518.624 377.399C513.554 373.461 516.574 365.539 519.374 361.191C524.574 353.104 531.024 349.575 540.114 347.598Z" fill="#022DA5"/>
<path d="M384.719 320.127C390.969 319.449 396.371 319.691 402.412 322.295C412.067 326.095 421.343 339.421 416.592 349.646C413.42 356.472 407.41 351.241 405.242 347.105C403.341 343.48 399.544 340.102 396.115 338.212C387.786 335.587 380.179 337.651 374.853 344.431C361.934 360.878 357.104 341.824 365.309 331.434C371.094 324.109 375.883 321.636 384.719 320.127Z" fill="#022DA5"/>
<path d="M714.229 393.59C725.439 463.14 711.169 534.4 674.034 594.265C668.499 603.315 662.724 611.93 656.469 620.385C646.584 633.75 637.829 647.91 635.894 664.735C635.244 670.38 634.839 677.36 639.394 681.665C641.829 683.965 646.274 682.65 648.119 680.195C649.554 678.16 650.034 674.59 651.609 672.545C661.679 662.78 672.534 655.285 686.284 651.91C708.484 646.46 733.224 658.655 738.109 681.905C740.139 691.56 736.929 700.73 727.984 705.57C721.824 708.88 714.594 708.05 708.354 711.105C695.129 717.96 690.609 727.15 674.669 729.965C668.504 732.07 659.659 727.28 655.079 732.455C654.104 733.555 653.224 736.17 653.614 737.68C654.309 740.345 655.764 743.15 657.319 745.48C662.294 752.93 667.249 759.6 670.529 768.05C678.469 788.505 677.024 822.465 645.304 813.145C620.259 805.79 604.649 782.27 600.159 757.375C599.304 752.66 599.654 747.185 599.474 742.375C599.344 738.82 599.189 737.86 596.374 735.685C591.439 735.23 574.834 739.73 567.384 740.675C540.119 744.13 512.114 741.545 485.563 734.665C480.156 733.265 472.736 731.18 467.885 728.8C505.014 732.505 533.349 734.71 568.229 715.635C564.559 712.975 561.129 710 557.974 706.75C542.679 690.805 538.469 672.37 538.984 651C554.384 648.92 575.319 642.5 588.684 633.235C590.714 631.83 590.824 629.36 590.934 627.085C603.364 621.71 616.289 612.45 626.749 603.87C674.544 564.655 699.584 507.63 708.849 447.465C710.029 439.587 710.939 431.672 711.584 423.733C712.004 418.666 712.574 396.898 714.229 393.59Z" fill="#0DBDFE"/>
<path d="M362.695 465.139C376.907 493.495 397.194 512.32 427.723 522.415C467.51 535.575 515.73 525.98 534.86 485.28C551.4 500.705 559.9 516.6 561.175 539.595C541.905 542.585 524.365 549.085 508.245 560.17C503.665 563.32 498.354 568.62 493.742 571.21C480.434 578.69 469.945 581.04 463.941 596.54C454.295 587.105 455.019 593.575 444.76 592.75L444.18 593.14C446.021 595.02 450.63 593.36 452.407 594.17C448.846 594.4 441.391 593.955 438.991 594.28C422.606 596.54 405.198 597.995 389.434 603.175C384.511 604.795 378.447 608.705 373.878 611.175C371.314 612.555 362.431 619.66 360.244 618.47C360.631 617.385 360.977 616.395 361.325 615.295C360.714 615.29 357.43 616.905 355.654 617.265L353.526 617.705C341.792 581.56 342.63 548.22 348.815 511.345C350.182 497.731 357.265 477.623 362.695 465.139Z" fill="#FDFDFD" fill-opacity="0.984314"/>
<path d="M677.551 268.532C707.401 268.611 736.001 280.529 757.076 301.67C768.036 312.7 782.961 334.574 783.691 350.423C785.101 353.955 784.796 360.551 782.716 363.8C779.761 368.424 773.896 366.753 769.506 365.447C754.236 360.901 738.681 362.986 723.311 365.916C714.381 332.195 706.011 313.511 688.281 283.713C684.746 278.623 681.171 273.562 677.551 268.532Z" fill="#1CD4FD"/>
<path d="M677.551 268.532C707.401 268.611 736.001 280.529 757.076 301.67C768.036 312.7 782.961 334.574 783.691 350.423C782.196 348.705 775.681 337.093 773.081 333.736C750.376 304.424 724.161 289.302 688.281 283.713C684.746 278.623 681.171 273.562 677.551 268.532Z" fill="#77EAFC"/>
<path d="M266.614 550.09C258.892 540.17 250.849 509.48 257.541 496.836C260.423 490.453 270.323 490.399 275.374 494.186C290.675 505.66 302.158 515.86 319.274 525.19C323.381 526.855 327.811 528.8 332.055 529.95C329.619 556.92 330.055 572.89 334.311 599.42C305.79 592.595 279.92 577.33 266.614 550.09Z" fill="#1CD4FD"/>
<path d="M319.274 525.19C323.381 526.855 327.811 528.8 332.055 529.95C329.619 556.92 330.055 572.89 334.311 599.42C305.789 592.595 279.919 577.33 266.613 550.09C268.906 550.56 271.943 552.855 273.815 554.255C306.131 578.355 323.657 560.825 319.274 525.19Z" fill="#06B3FE"/>
<path d="M356.072 624.74C363.658 624.95 377.408 618.915 384.287 615.275C395.307 609.45 408.007 606.88 420.402 605.4C431.848 604.04 442.339 600.635 453.517 603.6C457.61 604.705 459.107 602.505 462.226 601.015L462.65 600.82C462.543 603.1 462.415 605.305 462.442 607.595C461.551 605.575 462.245 606.075 460.712 605.475C460.205 605.925 458.13 609.09 457.943 609.615C453.534 611.54 447.301 612.375 443.508 614.215C438.423 616.685 435.309 619.995 429.392 622.255C425.205 623.855 423.447 622.56 421.054 623.545C410.835 627.77 400.63 631.99 390.298 635.94C390.323 635.93 383.069 637.065 382.998 637.07C377.141 637.155 367.096 633.055 361.437 633.125C360.542 632.83 359.638 632.165 358.807 631.64C357.926 630.095 356.745 626.555 356.072 624.74Z" fill="#FDFDFD"/>
<path d="M354.5 620.475C354.889 620.605 355.281 620.725 355.667 620.865C356.839 621.29 357.941 621.83 359.212 621.88C364.793 622.09 383.718 607.935 390.009 608.895C390.829 609.02 390.626 609.065 391.419 608.965C392.409 608.835 392.604 608.89 393.195 608.05L389.013 608.345L388.985 608.04C394.713 605.53 401.51 606.09 406.294 603.48L406.235 603.61C412.165 600.955 440.42 596.86 448.115 596.78C452.073 596.735 456.958 597.905 460.816 598.26C461.152 598.29 462.743 598.2 463.43 598.23L462.651 600.82L462.227 601.015C459.108 602.505 457.611 604.705 453.518 603.6C442.34 600.635 431.849 604.04 420.403 605.4C408.008 606.88 395.308 609.45 384.288 615.275C377.409 618.915 363.659 624.95 356.073 624.74C355.467 623.33 355.008 621.92 354.5 620.475Z" fill="#FDFDFD"/>
<path d="M353.527 617.705L355.655 617.265C357.431 616.905 360.715 615.29 361.326 615.295C360.978 616.395 360.632 617.385 360.245 618.47C362.432 619.66 371.315 612.555 373.879 611.175C378.448 608.705 384.512 604.795 389.435 603.175C405.199 597.995 422.607 596.54 438.992 594.28C441.392 593.955 448.847 594.4 452.408 594.17C450.631 593.36 446.022 595.02 444.181 593.14L444.761 592.75C455.02 593.575 454.296 587.105 463.942 596.54L463.43 598.23C462.743 598.2 461.152 598.29 460.817 598.26C456.959 597.905 452.074 596.735 448.116 596.78C440.421 596.86 412.165 600.955 406.236 603.61L406.295 603.48C401.51 606.09 394.713 605.53 388.985 608.04L389.014 608.345L393.196 608.05C392.604 608.89 392.41 608.835 391.419 608.965C390.626 609.065 390.83 609.02 390.01 608.895C383.718 607.935 364.793 622.09 359.213 621.88C357.942 621.83 356.839 621.29 355.668 620.865C355.282 620.725 354.89 620.605 354.5 620.475L353.527 617.705Z" fill="#FDFDFD"/>
<path d="M277.282 184.162C278.984 183.897 282.059 183.55 283.076 184.898C286.972 190.059 290.248 210.862 291.25 216.93C296.985 251.7 289.374 287.138 268.529 315.707C265.579 318.978 255.717 333.881 251.198 333.421C230.515 331.314 205.335 316.896 190.657 304.542C170.876 287.927 157.064 261.268 150.041 236.742C145.829 222.036 144.95 223.796 159.675 217.497C172.714 211.939 184.944 204.649 196.037 195.825C200.337 192.404 205.821 186.819 210.062 184.081C233.933 189.6 253.515 187.676 277.282 184.162Z" fill="#022DA5"/>
<path d="M277.546 191.725L278.04 191.841C281.192 196.728 285.111 225.245 285.452 232.775C287.227 271.879 275.159 297.856 249.944 326.183C225.961 319.348 210.209 313.134 191.446 295.28C172.028 275.429 161.762 254.314 154.902 227.65C180.77 216.545 190.461 210.333 212.109 192.188C232.78 197.649 256.741 194.934 277.546 191.725Z" fill="#06B3FE"/>
<path d="M213.964 199.542C235.201 203.67 253.054 202.341 274.165 199.26C276.588 213.11 279.198 222.96 279.634 237.411C280.565 268.272 269.331 296.305 248.17 318.683C244.028 317.562 239.893 316.418 235.765 315.25C229.837 313.062 224.085 310.423 218.561 307.355C186.916 289.463 172.644 265.267 163.143 231.389C166.599 229.719 170.117 228.197 173.585 226.538C188.629 219.341 200.825 209.55 213.964 199.542Z" fill="#0F7CFD"/>
<path d="M229.907 215.581L230.774 216.068C232.952 222.849 234.896 230.441 236.802 237.357C244.07 235.016 251.381 232.811 258.731 230.745C260.669 238.563 262.666 246.366 264.72 254.154C258.098 255.65 250.214 258.084 243.582 259.959C245.638 267.207 247.575 274.488 249.394 281.798C242.494 283.907 233.805 285.922 226.702 287.777L226.445 287.81C224.971 286.816 220.792 269.588 219.954 266.439C212.786 268.61 205.605 270.738 198.412 272.824C196.571 265.178 194.213 257.033 192.15 249.399L213.922 243.309C212.015 236.064 209.78 229.354 208.05 221.917L229.907 215.581Z" fill="#FEFEFE"/>
<path d="M890.93 268.264C892.02 270.568 892.004 274.185 892.604 276.746C897.109 296.061 909.84 301.466 927.13 304.992C926.46 305.115 925.79 305.243 925.12 305.373C909.37 308.463 897.8 315.532 893.185 331.591C892.34 334.527 892.58 338.811 890.765 341.057C890.185 339.917 889.655 336.981 889.445 335.625C886.35 315.651 872.145 307.315 853.77 304.912C871.525 302.954 882.685 296.779 888.805 278.995C889.935 275.708 889.59 271.965 890.93 268.264Z" fill="#1CD4FD"/>
<path d="M181.196 526.855C182.708 528.275 184.117 536.41 186.377 538.77C190.778 543.37 196.264 544.115 202.027 544.57C186.505 548.18 186.004 549.985 181.737 564.605C180.078 562.77 179.738 555.605 177.702 552.85C173.371 546.98 167.323 545.94 160.904 544.725C163.281 544.365 165.852 544.52 168.13 543.785C176.792 540.985 180.012 535.065 181.196 526.855Z" fill="#1CD4FD" fill-opacity="0.988235"/>
</svg>
