<svg xmlns="http://www.w3.org/2000/svg" width="770" height="377" fill="none"><path fill="#028947" d="M746.415 212.224c-3.867 15.513-10.905 31.118-21.619 45.762-10.524 14.735-24.663 28.418-41.147 40.774-33.158 24.665-76.27 43.519-123.439 55.6-47.233 12.218-95.734 17.893-142.396 20.867-46.726 2.883-92.437 2.38-135.168-2.471-42.795-4.668-82.484-13.82-116.846-26.313-34.426-12.447-63.59-28.189-86.16-45.258-22.698-17.069-38.484-35.465-49.262-52.443-3.995-6.498-7.355-12.767-10.018-18.808a77 77 0 0 1-3.043-4.576c-3.043-4.256-4.945-8.832-7.354-13.317l-2.79-6.91a41 41 0 0 1-2.409-7.047C1.594 188.657.516 178.818.01 168.979c-.127-9.884 1.078-19.814 3.487-29.699 2.79-9.839 6.403-19.677 11.92-29.104 10.65-18.854 27.515-36.472 49.198-50.384 21.492-14.095 46.598-24.574 72.339-32.4 25.803-7.87 52.431-13.087 78.742-16.977C268.444 2.956 320.051-.339 369.44.027 412.805.393 454.332 4.1 492.372 11.01h.127c9.51-.229 23.775.732 41.273 4.21 8.813 1.693 18.386 3.936 28.847 6.498s21.81 5.309 33.856 8.65c24.028 6.497 51.417 15.741 76.206 31.392 24.79 15.422 47.55 36.472 61.942 62.556 4.755 8.603 8.432 17.756 11.095 27.228A684 684 0 0 1 762.012 172c5.262 6.91 7.988 10.525 7.988 10.525s-2.916-3.569-8.432-10.342c-3.741-4.531-8.749-10.571-15.089-17.801 4.628 18.396 4.945 38.073 0 57.842zM369.186 6.937c-48.501 0-99.728 3.616-151.462 11.166-25.804 3.89-51.671 9.107-76.587 16.749-24.853 7.55-48.754 17.618-69.106 30.98-41.273 26.36-62.005 65.714-61.307 103.01.38 9.336 1.331 18.625 4.247 27.549.571 2.242 1.268 4.484 2.22 6.681l2.599 6.59c2.282 4.21 3.994 8.603 6.847 12.584 10.017 16.474 24.916 30.889 41.717 43.199 33.982 24.666 75.192 41.003 115.071 52.626 40.068 11.623 79.567 18.396 115.958 21.92 73.227 6.727 133.457.595 173.462-6.27 5.009-.869 9.764-1.738 14.202-2.516 4.438-.824 8.495-1.785 12.299-2.609 7.608-1.601 14.075-3.02 19.21-4.439 10.271-2.654 15.66-4.027 15.66-4.027s-5.326 1.51-15.47 4.348c-5.008 1.51-11.475 3.02-19.019 4.805-3.804.869-7.862 1.922-12.237 2.837-4.438.869-9.129 1.785-14.138 2.791-39.878 7.642-100.362 14.919-174.603 9.107-36.962-3.112-77.158-9.427-118.177-20.776-40.766-11.395-83.308-27.64-119.002-52.946-11.285-8.1-21.81-17.161-30.749-27.183.888 1.465 1.839 2.929 2.79 4.439 11.222 16.52 27.325 34.322 50.086 50.658 22.634 16.383 51.544 31.347 85.526 43.108 33.919 11.806 72.91 20.272 114.817 24.482 41.971 4.348 86.795 4.577 132.823 1.465s93.578-8.878 139.48-20.73c45.901-11.715 87.428-29.837 119.508-53.358 15.914-11.807 29.545-24.803 39.815-38.761 10.398-13.865 17.308-28.738 21.303-43.565 6.593-24.665 4.628-49.239-3.804-71.296-10.905-11.761-24.536-25.49-42.288-39.95-19.337-15.834-44.253-32.08-75.446-46.128-31.066-14.095-68.155-26.084-109.872-34.184-41.653-8.191-87.808-12.401-136.373-12.447zm299.628 57.889c-23.648-15.65-50.086-25.123-73.734-32.079-11.856-3.524-23.078-6.498-33.412-9.244-10.334-2.791-19.781-5.217-28.403-7.047-16.23-3.57-29.544-4.897-38.991-5.08 4.502.824 9.003 1.694 13.441 2.609 42.224 8.694 79.63 21.37 110.823 36.151 31.319 14.69 56.109 31.622 75.065 47.913 15.66 13.317 27.896 25.993 37.85 37.113a118 118 0 0 0-4.184-8.787c-13.251-25.306-34.744-46.082-58.455-61.503z"/></svg>