<svg width="361" height="407" viewBox="0 0 361 407" fill="none" xmlns="http://www.w3.org/2000/svg">
<path d="M349.943 229.112C348.13 245.86 344.83 262.706 339.807 278.515C334.873 294.423 328.244 309.195 320.516 322.534C304.971 349.162 284.758 369.516 262.644 382.558C240.5 395.749 217.761 401.875 195.884 405.086C173.978 408.199 152.547 407.655 132.513 402.418C112.449 397.379 93.8424 387.499 77.732 374.012C61.592 360.574 47.919 343.579 37.3374 325.152C26.6962 306.725 19.295 286.864 14.242 268.536C12.3694 261.521 10.794 254.752 9.54561 248.231C9.0403 246.601 8.56473 244.971 8.11888 243.291C6.69213 238.696 5.80041 233.756 4.6709 228.915L3.36305 221.455C2.88747 218.984 2.50107 216.416 2.23355 213.847C0.74736 203.669 0.242055 193.048 0.00426475 182.426C-0.0551829 171.755 0.509579 161.035 1.63908 150.363C2.94693 139.742 4.64118 129.12 7.22715 118.943C12.2208 98.5889 20.1273 79.5687 30.2928 64.5501C40.3692 49.3339 52.1398 38.0206 64.2077 29.5727C76.3053 21.0753 88.7893 15.4434 101.125 11.2441C125.855 3.19138 150.05 -0.365651 173.205 0.0295743C193.536 0.4248 213.005 4.42646 230.839 11.8863C230.839 11.8863 230.869 11.8863 230.899 11.8863C235.357 11.6393 242.045 12.6768 250.249 16.4314C254.381 18.2593 258.869 20.6801 263.773 23.4467C268.678 26.2133 273.998 29.1775 279.646 32.7839C290.911 39.7991 303.752 49.7786 315.374 66.6745C326.996 83.3233 337.667 106.049 344.414 134.209C346.643 143.496 348.367 153.377 349.616 163.604C352.885 172.694 355.412 180.154 357.255 185.687C359.722 193.147 361 197.049 361 197.049C361 197.049 359.633 193.196 357.047 185.884C355.293 180.993 352.945 174.472 349.972 166.667C352.142 186.527 352.291 207.77 349.972 229.112H349.943ZM173.086 7.48945C150.347 7.48945 126.33 11.3923 102.076 19.5438C89.9783 23.7431 77.8509 29.3751 66.1695 37.6254C54.5177 45.7769 43.3119 56.6456 33.7705 71.0713C14.4203 99.5276 4.70063 142.014 5.0276 182.278C5.20594 192.356 5.65179 202.385 7.01909 212.019C7.2866 214.439 7.61356 216.86 8.05942 219.231L9.2781 226.346C10.3482 230.891 11.1507 235.633 12.4883 239.931C17.1846 257.717 24.1697 273.279 32.0465 286.568C47.9785 313.196 67.299 330.833 85.9953 343.382C104.781 355.93 123.299 363.242 140.36 367.046C174.691 374.308 202.929 367.688 221.684 360.278C224.033 359.339 226.262 358.4 228.343 357.56C230.423 356.671 232.326 355.634 234.109 354.744C237.676 353.015 240.708 351.484 243.115 349.952C247.931 347.087 250.457 345.605 250.457 345.605C250.457 345.605 247.96 347.235 243.205 350.298C240.856 351.928 237.825 353.559 234.287 355.485C232.504 356.424 230.602 357.56 228.551 358.548C226.47 359.487 224.27 360.475 221.922 361.562C203.226 369.812 174.869 377.667 140.063 371.393C122.734 368.034 103.889 361.216 84.6577 348.964C65.5453 336.663 45.6006 319.125 28.8661 291.805C23.5752 283.06 18.6411 273.279 14.45 262.459C14.8662 264.04 15.312 265.621 15.7579 267.251C21.019 285.086 28.5688 304.304 39.2397 321.941C49.8511 339.627 63.4052 355.782 79.3371 368.478C95.2394 381.225 113.52 390.364 133.167 394.909C152.844 399.603 173.859 399.85 195.438 396.49C217.018 393.131 239.311 386.906 260.831 374.11C282.351 361.463 301.82 341.9 316.86 316.506C324.321 303.76 330.711 289.73 335.527 274.662C340.401 259.693 343.641 243.637 345.514 227.63C348.605 201.002 347.684 174.472 343.73 150.66C338.618 137.963 332.227 123.142 323.905 107.531C314.839 90.4374 303.157 72.8993 288.533 57.7325C273.969 42.5163 256.58 29.5727 237.022 20.8283C217.493 11.9851 195.854 7.44005 173.086 7.39065V7.48945ZM313.561 69.9845C302.474 53.0886 290.079 42.8621 278.992 35.3528C273.434 31.5488 268.173 28.3376 263.328 25.3734C258.483 22.3598 254.054 19.7414 250.011 17.7653C242.402 13.9119 236.16 12.4792 231.731 12.2816C233.842 13.1708 235.952 14.1095 238.033 15.0975C257.829 24.4841 275.366 38.1688 289.99 54.1261C304.673 69.9845 316.295 88.2637 325.183 105.851C332.525 120.228 338.261 133.912 342.928 145.917C342.333 142.706 341.68 139.544 340.966 136.432C334.754 109.112 324.677 86.6828 313.561 70.0339V69.9845Z" fill="#028947"/>
</svg>
