<svg width="368" height="620" viewBox="0 0 368 620" fill="none" xmlns="http://www.w3.org/2000/svg">
<path d="M358.667 349.016C356.809 374.528 353.427 400.191 348.279 424.274C343.221 448.507 336.428 471.009 328.507 491.329C312.574 531.893 291.858 562.899 269.192 582.767C246.495 602.861 223.19 612.193 200.768 617.085C178.315 621.826 156.35 620.998 135.817 613.021C115.253 605.344 96.1819 590.293 79.67 569.747C63.1276 549.277 49.1137 523.389 38.2682 495.317C27.3618 467.246 19.7761 436.993 14.597 409.072C12.6778 398.385 11.0631 388.075 9.7836 378.141C9.26569 375.657 8.77826 373.174 8.32129 370.615C6.85898 363.616 5.94504 356.09 4.78735 348.715L3.4469 337.351C2.95947 333.588 2.56345 329.675 2.28925 325.761C0.765991 310.258 0.248108 294.078 0.00439453 277.897C-0.0565491 261.642 0.522308 245.311 1.67996 229.055C3.02042 212.874 4.7569 196.694 7.40735 181.191C12.5255 150.185 20.6291 121.21 31.0481 98.3319C41.3757 75.1525 53.4397 57.9184 65.8085 45.0493C78.2076 32.1049 91.0029 23.5255 103.646 17.1286C128.993 4.86156 153.791 -0.557012 177.523 0.0450518C198.361 0.647115 218.316 6.743 236.594 18.107C236.594 18.107 236.625 18.107 236.655 18.107C241.225 17.7307 248.08 19.3111 256.488 25.0307C260.723 27.8152 265.323 31.5029 270.349 35.7173C275.376 39.9317 280.829 44.4472 286.618 49.9411C298.164 60.6277 311.325 75.8298 323.236 101.568C335.148 126.93 346.085 161.549 353.001 204.446C355.285 218.594 357.052 233.646 358.332 249.224C361.683 263.071 364.273 274.435 366.161 282.864C368.69 294.228 370 300.174 370 300.174C370 300.174 368.599 294.304 365.948 283.165C364.151 275.715 361.744 265.781 358.698 253.89C360.921 284.144 361.074 316.505 358.698 349.016H358.667ZM177.401 11.409C154.096 11.409 129.48 17.3544 104.621 29.7719C92.2215 36.1688 79.7918 44.7483 67.8192 57.3163C55.8769 69.7339 44.3917 86.2906 34.6125 108.266C14.7798 151.614 4.81784 216.336 5.15295 277.672C5.33575 293.024 5.79269 308.301 7.19409 322.977C7.46826 326.664 7.80338 330.352 8.26035 333.964L9.50943 344.802C10.6062 351.725 11.4287 358.95 12.7996 365.497C17.6131 392.59 24.7723 416.297 32.8455 436.541C49.1747 477.105 68.9768 503.972 88.1392 523.088C107.393 542.203 126.373 553.341 143.859 559.136C179.046 570.199 207.988 560.115 227.211 548.826C229.618 547.396 231.903 545.966 234.035 544.687C236.168 543.332 238.118 541.752 239.946 540.397C243.601 537.763 246.709 535.43 249.176 533.097C254.112 528.732 256.701 526.474 256.701 526.474C256.701 526.474 254.142 528.958 249.268 533.624C246.861 536.107 243.754 538.591 240.128 541.526C238.3 542.956 236.351 544.687 234.249 546.192C232.116 547.622 229.862 549.127 227.455 550.783C208.293 563.351 179.229 575.317 143.555 565.759C125.794 560.641 106.479 550.256 86.7683 531.592C67.1794 512.852 46.7375 486.136 29.5858 444.518C24.163 431.198 19.1058 416.297 14.8103 399.815C15.2368 402.223 15.6938 404.632 16.1508 407.115C21.543 434.283 29.2811 463.559 40.218 490.426C51.0939 517.368 64.9859 541.977 81.3151 561.319C97.6138 580.735 116.35 594.658 136.487 601.582C156.655 608.731 178.193 609.107 200.311 603.99C222.428 598.872 245.277 589.39 267.333 569.898C289.39 550.632 309.344 520.83 324.76 482.147C332.406 462.731 338.956 441.357 343.892 418.404C348.888 395.601 352.209 371.142 354.128 346.758C357.296 306.194 356.352 265.781 352.3 229.506C347.06 210.165 340.51 187.588 331.98 163.806C322.688 137.767 310.715 111.05 295.727 87.9463C280.799 64.7669 262.977 45.0493 242.931 31.7286C222.916 18.2575 200.737 11.3337 177.401 11.2585V11.409ZM321.378 106.61C310.015 80.8721 297.311 65.2937 285.947 53.8545C280.251 48.0596 274.858 43.1678 269.892 38.6524C264.927 34.0616 260.387 30.073 256.244 27.0626C248.445 21.1925 242.048 19.01 237.508 18.709C239.671 20.0637 241.834 21.4936 243.967 22.9987C264.257 37.2977 282.231 58.1442 297.219 82.4525C312.269 106.61 324.181 134.456 333.29 161.248C340.815 183.148 346.694 203.994 351.477 222.282C350.868 217.39 350.198 212.573 349.467 207.832C343.1 166.215 332.772 132.047 321.378 106.686V106.61Z" fill="#028947"/>
</svg>
