<svg xmlns="http://www.w3.org/2000/svg" width="746" height="258" fill="none"><path fill="#0850a4" d="M723.15 145.236c-3.746 10.616-10.565 21.295-20.945 31.317-10.196 10.084-23.894 19.448-39.864 27.903-32.125 16.88-73.893 29.783-119.592 38.05-45.761 8.362-92.75 12.245-137.958 14.281-45.269 1.973-89.556 1.628-130.955-1.691-41.461-3.195-79.912-9.458-113.204-18.008-33.353-8.518-61.608-19.291-83.475-30.972-21.99-11.681-37.284-24.271-47.726-35.889-3.87-4.447-7.125-8.738-9.705-12.872a56 56 0 0 1-2.948-3.131c-2.949-2.913-4.791-6.045-7.126-9.114l-2.702-4.728c-.983-1.566-1.782-3.195-2.334-4.823C1.544 129.107.5 122.374.009 115.641c-.123-6.764 1.044-13.56 3.378-20.325C6.09 88.583 9.591 81.85 14.935 75.4 25.254 62.497 41.593 50.44 62.6 40.92c20.822-9.646 45.146-16.817 70.084-22.173 25-5.386 50.797-8.956 76.288-11.618 51.105-5.105 101.104-7.36 148.953-7.11 42.014.251 82.246 2.788 119.1 7.517h.123c9.214-.157 23.034.5 39.987 2.881 8.538 1.159 17.813 2.693 27.948 4.447s21.13 3.633 32.8 5.919c23.28 4.447 49.815 10.773 73.832 21.483 24.016 10.554 46.067 24.96 60.011 42.81 4.606 5.888 8.169 12.152 10.749 18.634a545 545 0 0 1 15.786 13.999c5.098 4.729 7.739 7.203 7.739 7.203s-2.825-2.443-8.169-7.078c-3.624-3.1-8.477-7.234-14.619-12.182 4.484 12.589 4.791 26.056 0 39.585zM357.679 4.748c-46.989 0-96.619 2.474-146.741 7.641-25 2.662-50.06 6.232-74.2 11.462-24.078 5.167-47.235 12.057-66.952 21.202C29.8 63.09 9.714 90.023 10.39 115.547c.369 6.389 1.29 12.746 4.116 18.853.553 1.535 1.228 3.069 2.15 4.572l2.518 4.51c2.211 2.881 3.87 5.888 6.634 8.612 9.705 11.274 24.14 21.139 40.417 29.563 32.923 16.88 72.848 28.06 111.484 36.015 38.819 7.954 77.086 12.589 112.344 15.001 70.944 4.603 129.297.407 168.055-4.291 4.852-.595 9.459-1.19 13.759-1.722 4.3-.564 8.231-1.221 11.916-1.785 7.371-1.096 13.636-2.067 18.611-3.038 9.951-1.816 15.172-2.756 15.172-2.756s-5.159 1.034-14.987 2.975c-4.853 1.034-11.118 2.067-18.427 3.289-3.686.595-7.617 1.315-11.855 1.941-4.3.595-8.845 1.222-13.698 1.911-38.635 5.23-97.233 10.209-169.161 6.232-35.81-2.13-74.752-6.452-114.493-14.218-39.496-7.798-80.711-18.916-115.293-36.234-10.933-5.543-21.13-11.744-29.79-18.602.86 1.002 1.781 2.004 2.702 3.037 10.872 11.306 26.474 23.488 48.525 34.668 21.928 11.212 49.938 21.452 82.861 29.501 32.861 8.08 70.637 13.873 111.238 16.755 40.663 2.975 84.089 3.131 128.683 1.002 44.593-2.13 90.661-6.076 135.132-14.187 44.471-8.017 84.703-20.419 115.784-36.516 15.417-8.079 28.623-16.973 38.574-26.525 10.073-9.489 16.769-19.667 20.638-29.814 6.388-16.88 4.484-33.697-3.685-48.792-10.565-8.048-23.771-17.443-40.97-27.34-18.734-10.835-42.874-21.953-73.094-31.567-30.098-9.646-66.031-17.85-106.447-23.394-40.356-5.606-85.072-8.487-132.123-8.518zm290.289 39.616c-22.911-10.71-48.525-17.193-71.436-21.954-11.486-2.411-22.358-4.447-32.37-6.326-10.012-1.91-19.165-3.57-27.518-4.822-15.725-2.443-28.624-3.351-37.776-3.477 4.361.564 8.722 1.16 13.022 1.785 40.908 5.95 77.148 14.625 107.369 24.74 30.343 10.054 54.36 21.64 72.725 32.79 15.172 9.113 27.027 17.788 36.67 25.398a73 73 0 0 0-4.054-6.013c-12.837-17.318-33.66-31.536-56.632-42.09z"/></svg>