<svg xmlns="http://www.w3.org/2000/svg" width="359" height="407" fill="none"><path fill="#0850a4" d="M349.943 229.112c-1.813 16.748-5.113 33.594-10.136 49.403a215 215 0 0 1-19.291 44.019c-15.545 26.628-35.758 46.982-57.872 60.024-22.144 13.191-44.883 19.317-66.76 22.528-21.906 3.113-43.337 2.569-63.371-2.668-20.064-5.039-38.67-14.919-54.78-28.406-16.141-13.438-29.814-30.433-40.396-48.86-10.64-18.427-18.042-38.288-23.095-56.616-1.873-7.015-3.448-13.784-4.696-20.305a123 123 0 0 1-1.427-4.94c-1.427-4.595-2.319-9.535-3.448-14.376l-1.308-7.46a90 90 0 0 1-1.13-7.608C.748 203.669.244 193.048.005 182.426c-.06-10.671.506-21.391 1.635-32.063 1.308-10.621 3.002-21.243 5.588-31.42 4.994-20.354 12.9-39.374 23.066-54.393C40.369 49.334 52.14 38.02 64.208 29.573c12.097-8.498 24.581-14.13 36.917-18.329C125.855 3.191 150.05-.366 173.205.03c20.331.395 39.8 4.396 57.634 11.856h.06c4.458-.247 11.146.79 19.35 4.545 4.132 1.828 8.62 4.25 13.524 7.016 4.905 2.766 10.225 5.73 15.873 9.337 11.265 7.015 24.106 16.995 35.728 33.89 11.622 16.65 22.293 39.375 29.04 67.535 2.229 9.287 3.953 19.168 5.202 29.395a970 970 0 0 1 7.639 22.083c2.467 7.46 3.745 11.362 3.745 11.362s-1.367-3.853-3.953-11.165a1006 1006 0 0 0-7.075-19.217c2.17 19.86 2.319 41.103 0 62.445zM173.086 7.489c-22.739 0-46.756 3.903-71.01 12.055-12.098 4.2-24.225 9.831-35.906 18.081-11.652 8.152-22.858 19.02-32.4 33.446C14.42 99.528 4.7 142.014 5.028 182.278c.178 10.078.624 20.107 1.991 29.741.268 2.42.595 4.841 1.04 7.212l1.22 7.115c1.07 4.545 1.872 9.287 3.21 13.585 4.696 17.786 11.68 33.348 19.557 46.637 15.932 26.628 35.253 44.265 53.95 56.814 18.785 12.548 37.303 19.86 54.364 23.664 34.331 7.262 62.569.642 81.324-6.768 2.349-.939 4.578-1.878 6.659-2.718 2.08-.889 3.983-1.926 5.766-2.816 3.567-1.729 6.599-3.26 9.006-4.792 4.816-2.865 7.342-4.347 7.342-4.347s-2.497 1.63-7.252 4.693c-2.349 1.63-5.38 3.261-8.918 5.187-1.783.939-3.685 2.075-5.736 3.063-2.081.939-4.281 1.927-6.629 3.014-18.696 8.25-47.053 16.105-81.859 9.831-17.329-3.359-36.174-10.177-55.405-22.429-19.113-12.301-39.057-29.839-55.792-57.159a187.5 187.5 0 0 1-14.416-29.346c.416 1.581.862 3.162 1.308 4.792 5.261 17.835 12.81 37.053 23.482 54.69 10.611 17.686 24.165 33.841 40.097 46.537 15.902 12.747 34.183 21.886 53.83 26.431 19.677 4.694 40.692 4.941 62.271 1.581s43.873-9.584 65.393-22.38c21.52-12.647 40.989-32.21 56.029-57.604a208.8 208.8 0 0 0 18.667-41.844c4.874-14.969 8.114-31.025 9.987-47.032 3.091-26.628 2.17-53.158-1.784-76.97-5.112-12.697-11.503-27.518-19.825-43.129-9.066-17.094-20.748-34.632-35.372-49.799-14.564-15.216-31.953-28.16-51.511-36.904-19.529-8.843-41.168-13.388-63.936-13.437zm140.475 62.496c-11.087-16.896-23.482-27.123-34.569-34.632-5.558-3.804-10.819-7.015-15.664-9.98-4.845-3.013-9.274-5.632-13.317-7.608-7.609-3.853-13.851-5.286-18.28-5.483 2.111.889 4.221 1.828 6.302 2.816 19.796 9.386 37.333 23.07 51.957 39.028 14.683 15.859 26.305 34.138 35.193 51.725 7.342 14.377 13.078 28.061 17.745 40.066a229 229 0 0 0-1.962-9.485c-6.212-27.32-16.289-49.75-27.405-66.398z"/></svg>