<svg width="1026" height="462" viewBox="0 0 1026 462" fill="none" xmlns="http://www.w3.org/2000/svg">
<path d="M994.574 260.073C989.421 279.084 980.044 298.207 965.767 316.152C951.744 334.21 932.905 350.978 910.941 366.119C866.759 396.346 809.313 419.451 746.462 434.255C683.525 449.229 618.899 456.182 556.724 459.828C494.463 463.361 433.554 462.744 376.616 456.799C319.593 451.079 266.71 439.863 220.923 424.554C175.051 409.3 136.191 390.009 106.117 369.091C75.8735 348.174 54.8384 325.63 40.4772 304.824C35.155 296.861 30.6777 289.178 27.1296 281.776C25.6935 279.925 24.3419 278.075 23.0746 276.168C19.0197 270.953 16.4854 265.345 13.2751 259.849L9.55811 251.381C8.20648 248.577 7.10828 245.661 6.34796 242.745C2.12402 231.192 0.687866 219.135 0.012085 207.078C-0.15686 194.965 1.44824 182.796 4.65845 170.683C8.37549 158.626 13.1907 146.569 20.5403 135.016C34.7327 111.912 57.2039 90.3212 86.0954 73.2731C114.734 56.0007 148.187 43.1585 182.485 33.569C216.868 23.9233 252.349 17.5303 287.407 12.7636C357.693 3.62265 426.458 -0.415063 492.267 0.0335708C550.05 0.482205 605.383 5.02463 656.07 13.4926C656.07 13.4926 656.154 13.4926 656.239 13.4926C668.911 13.2122 687.918 14.3899 711.234 18.6519C722.977 20.7268 735.733 23.4747 749.672 26.6152C763.611 29.7556 778.732 33.1203 794.783 37.2141C826.8 45.1774 863.295 56.5054 896.326 75.6845C929.357 94.5832 959.685 120.38 978.861 152.345C985.197 162.888 990.097 174.104 993.645 185.712C1002.94 196.031 1010.12 204.499 1015.36 210.78C1022.37 219.247 1026 223.678 1026 223.678C1026 223.678 1022.11 219.304 1014.76 211.004C1009.78 205.452 1003.11 198.05 994.659 189.189C1000.83 211.733 1001.25 235.847 994.659 260.073H994.574ZM491.929 8.50154C427.303 8.50154 359.045 12.9318 290.11 22.1849C255.728 26.9516 221.261 33.3447 188.061 42.7099C154.945 51.963 123.097 64.3004 95.9794 80.6756C40.984 112.977 13.3597 161.205 14.2889 206.91C14.7958 218.35 16.0629 229.734 19.949 240.67C20.7092 243.418 21.6385 246.166 22.9057 248.857L26.3693 256.933C29.4105 262.092 31.6914 267.476 35.4929 272.355C48.8405 292.543 68.6929 310.208 91.0796 325.293C136.36 355.52 191.271 375.54 244.408 389.785C297.798 404.029 350.428 412.328 398.918 416.647C496.491 424.89 576.745 417.376 630.051 408.964C636.724 407.898 643.06 406.833 648.974 405.879C654.887 404.87 660.294 403.692 665.363 402.683C675.5 400.72 684.117 398.982 690.959 397.243C704.645 393.991 711.826 392.308 711.826 392.308C711.826 392.308 704.729 394.159 691.213 397.636C684.539 399.486 675.922 401.337 665.869 403.524C660.801 404.59 655.394 405.879 649.565 407.001C643.652 408.066 637.4 409.188 630.726 410.422C577.59 419.787 496.997 428.704 398.073 421.582C348.823 417.768 295.263 410.029 240.606 396.122C186.287 382.158 129.602 362.25 82.0404 331.238C67.0033 321.312 52.9799 310.208 41.0685 297.927C42.2512 299.721 43.5184 301.516 44.7856 303.366C59.7382 323.611 81.1956 345.426 111.523 365.446C141.682 385.523 180.204 403.86 225.484 418.273C270.68 432.741 322.634 443.116 378.475 448.275C434.399 453.603 494.125 453.883 555.456 450.07C616.788 446.256 680.146 439.19 741.308 424.666C802.471 410.31 857.804 388.102 900.55 359.277C921.754 344.809 939.917 328.882 953.602 311.778C967.457 294.786 976.665 276.561 981.987 258.391C990.773 228.164 988.154 198.05 976.918 171.019C962.388 156.607 944.225 139.783 920.571 122.062C894.805 102.659 861.605 82.7505 820.042 65.5342C778.648 48.2617 729.228 33.569 673.641 23.6429C618.139 13.6048 556.639 8.44546 491.929 8.38938V8.50154ZM891.173 79.4418C859.662 60.2627 824.435 48.6543 792.925 40.1303C777.127 35.8122 762.175 32.167 748.405 28.8022C734.635 25.3814 722.047 22.4092 710.558 20.166C688.932 15.7918 671.191 14.1655 658.604 13.9412C664.602 14.9507 670.6 16.0162 676.514 17.1378C732.776 27.7928 782.618 43.3268 824.182 61.4404C865.914 79.4418 898.945 100.191 924.204 120.155C945.07 136.474 961.374 152.008 974.637 165.636C972.948 161.991 971.089 158.401 969.062 154.868C951.406 123.857 922.768 98.3966 891.173 79.4979V79.4418Z" fill="#008BBD"/>
</svg>
